<?xml version="1.0" encoding="UTF-8" standalone="no"?>
<svg
   xmlns:dc="http://purl.org/dc/elements/1.1/"
   xmlns:cc="http://creativecommons.org/ns#"
   xmlns:rdf="http://www.w3.org/1999/02/22-rdf-syntax-ns#"
   xmlns:svg="http://www.w3.org/2000/svg"
   xmlns="http://www.w3.org/2000/svg"
   xmlns:sodipodi="http://sodipodi.sourceforge.net/DTD/sodipodi-0.dtd"
   xmlns:inkscape="http://www.inkscape.org/namespaces/inkscape"
   version="1.1"
   id="Слой_1"
   x="0px"
   y="0px"
   viewBox="0 -10 283.66238 248.5"
   xml:space="preserve"
   sodipodi:docname="ruhuntlogo.svg"
   width="283.66238"
   height="248.5"
   inkscape:version="1.0.1 (3bc2e813f5, 2020-09-07)"><metadata
   id="metadata11"><rdf:RDF><cc:Work
       rdf:about=""><dc:format>image/svg+xml</dc:format><dc:type
         rdf:resource="http://purl.org/dc/dcmitype/StillImage" /><dc:title /></cc:Work></rdf:RDF></metadata><defs
   id="defs9" /><sodipodi:namedview
   pagecolor="#ffffff"
   bordercolor="#666666"
   borderopacity="1"
   objecttolerance="10"
   gridtolerance="10"
   guidetolerance="10"
   id="namedview46"
   inkscape:document-rotation="0"
   showgrid="false"
   inkscape:zoom="3.36"
   inkscape:cx="146.63815"
   inkscape:cy="143.24249"
   inkscape:window-width="1440"
   inkscape:window-height="1198"
   inkscape:window-x="1752"
   inkscape:window-y="771"
   inkscape:window-maximized="0"
   inkscape:current-layer="layer2" />
<style
   type="text/css"
   id="style2">
	.st0{fill:red;}
	.st1{
      fill:#FFFFFF;
   }
</style>

<g
   inkscape:groupmode="layer"
   id="layer2"
   inkscape:label="Layer 2"
   transform="translate(-3.3618469,-6.7575125)"><path
     class="st1"
     d="M 262.20281,4.2575125 H 45.502806 c -8.7,0 -16.099999,8.6000025 -17.199999,20.1000025 L 11.002805,212.05751 c -1.2999996,13.6 6.800001,25.7 17.200002,25.7 H 244.90281 c 8.7,0 16.1,-8.6 17.2,-20.1 l 17.3,-187.599995 c 1.2,-13.7 -6.9,-25.8000025 -17.2,-25.8000025 z m -30.5,167.2999975 -1.6,13.3 c -0.2,1.6 -1.7,2.9 -3.3,2.9 h -134.6 l -2.8,22.5 c -0.2,1.8 -1.8,3.2 -3.6,3.2 h -12.7 c -1.8,0 -3.1,-1.4 -2.8,-3.2 l 2.7,-22.3 H 46.702806 c -1.6,0 -2.8,-1.3 -2.6,-2.9 l 1.6,-13.3 c 0.2,-1.6 1.7,-2.9 3.3,-2.9 H 75.20281 l 2.7,-22.2 c 0.2,-1.8 1.8,-3.2 3.6,-3.2 h 12.900001 c 1.8,0 3.099999,1.4 2.799999,3.2 l -2.699999,22.2 H 229.10281 c 1.6,-0.2 2.8,1.1 2.6,2.7 z m 6.1,-57.1 -1.6,13.3 c -0.2,1.6 -1.7,2.9 -3.3,2.9 h -26.2 l -2.7,22.2 c -0.2,1.8 -1.8,3.2 -3.6,3.2 h -12.8 c -1.8,0 -3.1,-1.4 -2.8,-3.2 l 2.7,-22.2 H 52.802806 c -1.6,0 -2.8,-1.3 -2.6,-2.9 l 1.6,-13.3 c 0.2,-1.6 1.7,-2.9 3.3,-2.9 H 189.70281 l 2.7,-22.300005 c 0.2,-1.8 1.8,-3.2 3.6,-3.2 h 12.8 c 1.8,0 3.1,1.4 2.8,3.2 l -2.7,22.300005 h 26.2 c 1.7,-0.1 2.9,1.2 2.7,2.9 z m 8.4,-57.499995 -1.6,13.3 c -0.2,1.6 -1.7,2.9 -3.3,2.9 h -134.6 l -2.7,22.29999 c -0.2,1.800005 -1.8,3.200005 -3.6,3.200005 h -12.8 c -1.8,0 -3.1,-1.4 -2.8,-3.200005 l 2.7,-22.29999 h -26.3 c -1.6,0 -2.800004,-1.3 -2.600004,-2.9 l 1.600004,-13.3 c 0.2,-1.6 1.7,-2.90001 3.3,-2.90001 h 26.2 l 2.7,-22.19999 c 0.2,-1.8 1.800001,-3.2 3.600001,-3.2 h 12.799999 c 1.8,0 3.1,1.4 2.8,3.2 l -2.7,22.19999 h 134.6 c 1.7,-0.1 2.9,1.20001 2.7,2.90001 z"
     id="path4-7"
     style="fill:#ffffff" /></g></svg>
