<?xml version="1.0" encoding="utf-8"?>
<!-- Generator: Adobe Illustrator 22.1.0, SVG Export Plug-In . SVG Version: 6.00 Build 0)  -->
<svg version="1.1" id="Слой_1" xmlns="http://www.w3.org/2000/svg" xmlns:xlink="http://www.w3.org/1999/xlink" x="0px" y="0px"
	 viewBox="0 170 1702 260" >
<style type="text/css">
	.st0{fill:#303030;}
	.st1{fill:#FFFFFF;}
</style>
<g>
	<path class="st0" d="M682-854.7c-14.8-9.6-31.6-8.3-48.3-7.2c0.1-1.4,0.1-2.7,0.2-4.1c19.8,0,39.7,0,59.5,0c0-1,0-2-0.1-3.1
		c-24.7-3.2-50,2.6-74.6-2.8c0.1-1.4,0.1-2.8,0.2-4.2c11.7,0,24.3,2.8,34.9-0.6c21-6.8,41.8-4.4,62.8-3.8c29,0.7,58,2.3,87,3.4
		c3,0.1,6.1,0,9.4-1.6c-1.2-0.6-2.5-1.3-3.7-1.9c0-0.5,0-1,0-1.5c15.1,0,30.2-0.4,45.3,0.1c14.7,0.5,29.3,2.8,43.9,2.5
		c14.7-0.3,29.3-2.8,44.8-4.5c0.7-7.8,0.8-16.1,2.4-24.1c1-5.2,4.4-9.9,6.5-14.9c1-2.5,1.6-5.2,2-7.9c1.7-10.9,3.2-21.7,5-32.6
		c0.3-1.5,2-2.8,3.8-5.2c3.4,5.8,10.3,8.1,9,15.7c-1.1,5.9-2.2,11.9-3.3,17.6c4.3,1.6,7.3,2.7,10.8,4c1-2.6,1.8-4.8,3.4-9.1
		c1.3,4.9,2.1,7.9,3.1,11.8c2.4,0,5,0,8.1,0c1.4,14.9,2.7,29,4.2,44.4c19.2,0.7,38.9-6.7,57.9,0.7c0,0.9,0,1.9,0,2.8
		c-15.8,0-31.6,0-47.3,0c0,0.9,0,1.8,0,2.7c26.2,4.7,54.2-4.1,81.8,11.2c-8.6,0-14.4,0-22.6,0c12.2,6.4,22,8.4,33.9,7.7
		c7.9-0.5,16.3,6.9,25.7,11.4c-21.1,0-41.1,0-61.1,0c0,1.1,0,2.3,0,3.4c13.3,0,26.6,0,39.9,0c0,0.8,0.1,1.6,0.1,2.4
		c-17.6,1.4-35.2,2.8-52.8,4.2c0,0.3,0.1,0.6,0.1,1c13.8,0,27.7,0,41.5,0c0.1,0.4,0.2,0.9,0.3,1.3c-9,1.4-18.1,3.8-27.1,4
		c-21.2,0.4-42.4-0.1-63.7-0.4c-2.1,0-4.5-1.9-6.2-1.3c-2.5,0.9-6.7,3.8-6.5,5c2.2,9.3,2.8,16.8-6.2,24c-3.7,3-2.4,12-3.7,18.2
		c-1.4,7-3.2,14-6.3,20.9c-0.6-2.3-1.2-4.5-1.6-6c-1.5,1.1-3.1,2.5-4.9,3.6c-1.7,1.1-3.6,1.9-6,3.1c0-4.2,0-8.2,0-13.1
		c-4.7-1.2-9.3-2.4-14.1-3.7c0-7.2,0-15.3,0-24.2c-1.6,8.6-3,16.3-4.4,24c-0.4,0-0.9,0-1.3,0c-0.1-2.2-0.3-4.5-0.4-7.8
		c-2.3,1.8-4,3.1-6,4.6c-6.8-15.3-1.2-30-0.1-46.3c-14.3,0-27.9,0.7-41.4-0.1c-30.4-1.8-60.8-4.5-91.2-6.4c-8.7-0.5-17.6,1-26.3,0.4
		c-7.3-0.5-14.5-2.8-21.8-3.7c-2.9-0.4-6.1,0.3-9.1,1c-10.5,2.4-20.9,5.1-31.3,7.6c-0.2-0.8-0.4-1.7-0.6-2.5
		c4.9-0.9,9.7-1.9,14.6-2.8c-9.6-9.3-20.4-3.8-30.8-3.9c-31.6-0.3-63.3-1.2-94.9-1.8c-7.8-0.1,0.7,0-7.1-1.4
		C630.6-849.4,648.3-848.6,682-854.7z"/>
</g>
<path class="st1" d="M262.8,185.5H46.1c-8.7,0-16.1,8.6-17.2,20.1L11.6,393.3c-1.3,13.6,6.8,25.7,17.2,25.7h216.7
	c8.7,0,16.1-8.6,17.2-20.1l17.3-187.6C281.2,197.6,273.1,185.5,262.8,185.5z M232.3,352.8l-1.6,13.3c-0.2,1.6-1.7,2.9-3.3,2.9H92.8
	L90,391.5c-0.2,1.8-1.8,3.2-3.6,3.2H73.7c-1.8,0-3.1-1.4-2.8-3.2l2.7-22.3H47.3c-1.6,0-2.8-1.3-2.6-2.9l1.6-13.3
	c0.2-1.6,1.7-2.9,3.3-2.9h26.2l2.7-22.2c0.2-1.8,1.8-3.2,3.6-3.2H95c1.8,0,3.1,1.4,2.8,3.2l-2.7,22.2h134.6
	C231.3,349.9,232.5,351.2,232.3,352.8z M238.4,295.7l-1.6,13.3c-0.2,1.6-1.7,2.9-3.3,2.9h-26.2l-2.7,22.2c-0.2,1.8-1.8,3.2-3.6,3.2
	h-12.8c-1.8,0-3.1-1.4-2.8-3.2l2.7-22.2H53.4c-1.6,0-2.8-1.3-2.6-2.9l1.6-13.3c0.2-1.6,1.7-2.9,3.3-2.9h134.6l2.7-22.3
	c0.2-1.8,1.8-3.2,3.6-3.2h12.8c1.8,0,3.1,1.4,2.8,3.2l-2.7,22.3h26.2C237.4,292.7,238.6,294,238.4,295.7z M246.8,238.2l-1.6,13.3
	c-0.2,1.6-1.7,2.9-3.3,2.9H107.3l-2.7,22.3c-0.2,1.8-1.8,3.2-3.6,3.2H88.2c-1.8,0-3.1-1.4-2.8-3.2l2.7-22.3H61.8
	c-1.6,0-2.8-1.3-2.6-2.9l1.6-13.3c0.2-1.6,1.7-2.9,3.3-2.9h26.2l2.7-22.2c0.2-1.8,1.8-3.2,3.6-3.2h12.8c1.8,0,3.1,1.4,2.8,3.2
	l-2.7,22.2h134.6C245.8,235.2,247,236.5,246.8,238.2z"/>
<g>
	<path class="st1" d="M591.8,274.8c-1.8,16.6-4.3,33.3-4.6,50c-0.5,19.5,9.9,31.9,26.5,34.7c20.2,3.4,34.6-4.7,41.4-23.6
		c1.7-4.6,2.9-9.5,3.6-14.4c3.1-23.4,6-46.8,8.7-70.2c2.5-21.9,4.6-41.6,6.8-63.5c25.2,0,50.4,0,75.5,0c-2.6,24.6-4.8,46.9-7.8,71.5
		c-3.3,27.2-5.5,54.6-11.3,81.3c-9.5,43.4-34.8,69.6-79.2,78.4c-5.5,1.1-9.1,2.3-18.3,2.3c-9.9,0-22.1,0-32,0
		c-2.2,0-12.7-1.8-16-2.3c-56-7.5-81-49.5-73.8-105.3c0,0,14.3-125.8,14.3-125.8c25.9,0,51.9,0,77.9,0"/>
	<path class="st1" d="M1241.6,187.7c20.8,0,20.6,0,59.5,0c3.2,0,6.3,4.7,8.4,7.7c21.6,30.5,42.8,61.1,64.2,91.8
		c1.7,2.5,3.6,4.8,5.4,7.2c0.9,0,1.9,0,2.8,0.1c4.1-35,8.9-71.2,13-106.8c24.5,0,47.2,0,73.2,0c-8.7,77-16.4,155.4-25.1,233.4
		c-20.6,0-41.2,0-61.8,0c-2.4,0-4.7-4.9-6.6-7.5c-20.4-28.9-40.7-58-61-87c-2.8-4-5.8-7.9-8.7-11.8c-0.9,0-1.9,0-2.8,0.1
		c-4,34.7-8.3,70.8-12.4,106.2c-24.5,0-49.8,0-75.5,0C1222.8,344.2,1232.8,265.6,1241.6,187.7z"/>
	<path class="st1" d="M1598.7,421.1c-26,0-51.8,0-77.8,0c6.3-56.7,14-113.9,20.4-171.3c-22.2,0-43.7,0-67.6,0
		c2.3-21.1,3.8-41.9,6-62.1c70.7,0,141,0,212.9,0c-2.2,20-4.3,40.8-6.5,61.3c-23,0-44.6,0-67.8,0
		C1611.6,306.2,1605.2,363.7,1598.7,421.1z"/>
	<path class="st1" d="M901.9,269.9c3.2-26.7,6.9-54.8,10.2-82.2c25.1,0,48.8,0,75.5,0c-8.7,76.9-16.5,156.2-25.2,233.4
		c-25.7,0-52.1,0-77.8,0c3.1-28.2,7-57.4,10.2-86.4c-24.7,0-48.4,0-73.4,0c-3.3,28.2-6.6,57.6-9.9,86.4c-25.4,0-51.5,0-77.8,0
		c8.7-77.1,18.8-156.2,27.5-233.4c25.5,0,51.7,0,77.8,0c-2.9,26.9-7.3,54.8-10.2,82.2C853.5,269.9,877,269.9,901.9,269.9z"/>
	<path class="st1" d="M386.3,373.3c-6.9-10.5-13.7-13.9-24.7-11.7c-2.1,0.4-3.7,2.2-4,4.4c-0.9,8.2-1.7,16.7-2.8,25.1
		c-1.1,9.4-2.3,20-3.6,30h-77.8c8.7-77,18.7-156,27.5-233.4c13.7,0,8.1,0,11.4,0c31.6,0,62.5-0.2,94.1,0.9
		c15.4,0.5,31.3,2.7,45.9,7.4c30.9,9.9,50,31.6,53.7,64.4c4,35-7.1,63.9-38,83.2c-4.8,3-6.3,1.9-12.7,5.3
		c14.6,22.7,24.9,48.5,40.1,72.2c-16.5,0-31.2,0.1-45.8,0c-11-0.1-16,0-32,0 M364.4,302.4c15.2,0,28.5,0.9,41.6-0.2
		c14.6-1.3,23.5-12.6,23.6-27.4c0.1-14.9-7.8-25.8-22-27.4c-11.9-1.3-24.1-0.3-37-0.3C368.6,265.5,366.6,283.1,364.4,302.4z"/>
	<path class="st1" d="M1070.1,274.8c-1.8,16.6-4.3,33.3-4.6,50c-0.5,19.5,9.9,31.9,26.5,34.7c20.2,3.4,34.6-4.7,41.4-23.6
		c1.7-4.6,2.9-9.5,3.6-14.4c3.1-23.4,6-46.8,8.7-70.2c2.5-21.9,4.6-41.6,6.8-63.5c25.2,0,50.4,0,75.5,0c-2.6,24.6-4.8,46.9-7.8,71.5
		c-3.3,27.2-5.5,54.6-11.3,81.3c-9.5,43.4-34.8,69.6-79.2,78.4c-5.5,1.1-9.1,2.3-18.3,2.3c-9.9,0-22.1,0-32,0
		c-2.2,0-12.7-1.8-16-2.3c-56-7.5-81-49.5-73.8-105.3c0,0,14.3-125.8,14.3-125.8c25.9,0,51.9,0,77.9,0"/>
</g>
</svg>
